# xmcd CD database generated by RipIT
#
# Track frame offsets:
# 150
# 16264
# 33214
# 51750
# 72594
# 92788
# 115463
# 138315
# 151846
# 171736
#
# Disc length: 2580 seconds
#
# Revision: 0
# Processed by: cddbd v1.5.2PL0 Copyright (c) Steve Scherf et al.
# Submitted via: RipIT 4.0.0-beta20140508 www.suwald.com/ripit/ripit.html on 2016-05-06 at 13:11
#
DISCID=870a120a
DTITLE=MonkeyJunk - Moon Turn Red
DYEAR=2015
DGENRE=Blues
TTITLE0=Light it Up
TTITLE1=You
TTITLE2=Show Me Yours
TTITLE3=Hot Hot Papa
TTITLE4=Love Attack
TTITLE5=Live Another Day
TTITLE6=Learn How to Love
TTITLE7=Lucky One
TTITLE8=Travelin' Light
TTITLE9=Meet Me at Midnight
EXTD=
EXTT0=
EXTT1=
EXTT2=
EXTT3=
EXTT4=
EXTT5=
EXTT6=
EXTT7=
EXTT8=
EXTT9=
PLAYORDER=
